<mxfile host="app.diagrams.net" modified="2024-04-22T15:43:15.567Z" agent="Mozilla/5.0 (Windows NT 10.0; Win64; x64) AppleWebKit/537.36 (KHTML, like Gecko) Chrome/123.0.0.0 Safari/537.36" version="24.2.7" etag="ib7VpuITa8cdGYzyMKfS" type="github">
  <diagram name="Page-1" id="1V57FnAgfCEGKUVnfk5b">
    <mxGraphModel>
      <root>
        <mxCell id="0" />
        <mxCell id="1" parent="0" />
      </root>
    </mxGraphModel>
  </diagram>
</mxfile>
